PathFileType	4	(X/Y/Z)	26_1_48_p1_0-522_filt_butterworth.trc
DataRate	CameraRate	NumFrames	NumMarkers	Units	OrigDataRate	OrigDataStartFrame	OrigNumFrames
59.0	59.0	4	27	m	59.0	0	522
Frame#	Time	RHip			RKnee			RAnkle			RBigToe			RSmallToe			RHeel			LHip			LKnee			LAnkle			LBigToe			LSmallToe			LHeel			Neck			Head			Nose			RShoulder			RElbow			RWrist			RThumb			RIndex			RPinky			LShoulder			LElbow			LWrist			LThumb			LIndex			LPinky			
		X1	Y1	Z1	X2	Y2	Z2	X3	Y3	Z3	X4	Y4	Z4	X5	Y5	Z5	X6	Y6	Z6	X7	Y7	Z7	X8	Y8	Z8	X9	Y9	Z9	X10	Y10	Z10	X11	Y11	Z11	X12	Y12	Z12	X13	Y13	Z13	X14	Y14	Z14	X15	Y15	Z15	X16	Y16	Z16	X17	Y17	Z17	X18	Y18	Z18	X19	Y19	Z19	X20	Y20	Z20	X21	Y21	Z21	X22	Y22	Z22	X23	Y23	Z23	X24	Y24	Z24	X25	Y25	Z25	X26	Y26	Z26	X27	Y27	Z27	
0	0.0	0.30653256661211853	0.797995686525909	0.92898822003248	0.27182150997007004	0.9729486111877079	1.2993293093205605	0.254158837328514	1.2409175472437715	1.6456962217713489	0.22957126690428611	0.9761539999370578	1.6868824628286474	0.2728458558879361	1.0399070657163847	1.6963552040631105	0.24348609348481276	1.3130238680188566	1.6809064590449554	0.08122749508779212	0.8099775479959348	0.9116532457747423	0.10823541465725715	0.9755039745767909	1.2757507088391498	0.12189804577886426	1.2129770118368808	1.6412652326480113	0.10123459262077364	1.0256761582605496	1.6851537464714137	0.05631024181415062	1.1175224553882155	1.6719175277448075	0.13470985719948925	1.3189498929531858	1.6869318736888388	0.2235922338249819	0.5055297159788844	0.3464386029159564	0.2346969672671952	0.3854327455636746	0.12873418790112445	0.2318952337001064	0.389691881627173	0.26140333670716487	0.37312824662579497	0.565717731302901	0.43541621361080085	0.4241918900602514	0.5998472375331695	0.706976414415829	0.2582554768436895	0.5567532500056427	0.9207944712666494	0.1554136554460021	0.6046502135834795	0.9594090621587831	0.1493746883760177	0.6189308211024656	0.9855077999220857	0.16685059847346628	0.6264290269837945	1.0159563329229888	0.07027003327276224	0.5942798282491931	0.38948731037295803	5.858013614765238e-05	0.617887479308305	0.6755792123416821	0.11302194438883374	0.5377188756776968	0.89510220675454	0.18985736690310737	0.5579620701222174	0.9498202237269401	0.190057022060382	0.5783085414894181	0.9987709343755479	0.17391436000432683	0.6243367416411351	1.0014062290271513
1	0.0169491525423728	0.3069338487919657	0.7972733182109171	0.9269081666783697	0.27240891066890954	0.9744766141249691	1.299223790532936	0.25349215920195695	1.238822339567659	1.6399945109264285	0.23357954509636333	0.9904627110147775	1.6892488234583332	0.2738704503378903	1.053342757034767	1.6985535869575688	0.245549234848577	1.3184821905894035	1.6798275686812794	0.08129461414757029	0.810165971916193	0.9134338020202957	0.10839183631620909	0.975720114252149	1.275599585371292	0.12411361533143067	1.2235565275768963	1.639791273660425	0.10598482019931324	1.03485566227069	1.6882634421180054	0.056809306825873526	1.1201438537989576	1.673605085024228	0.13466930167621177	1.3183880021226952	1.6867355868481761	0.22507024053552488	0.5066266298569139	0.3472802990867523	0.23471574266055298	0.3856940155248082	0.12870348207475327	0.23187420809092418	0.3898738906606292	0.26143737144444	0.37594723301597754	0.5663048004469305	0.43563823734275897	0.42425231030721233	0.5999973538597824	0.7070265426133264	0.2579883546085042	0.5576556520799758	0.9232137921843514	0.15312810911160263	0.6033098599774452	0.9594769682099775	0.1492492407646334	0.6189590621014766	0.9870645317980002	0.16668876858145565	0.6259734287576806	1.0159555651480119	0.07027561961729245	0.5942106415307271	0.3895371836418078	5.193884765173829e-06	0.6179072876856944	0.6757095874085604	0.11416044646653369	0.5465361425142747	0.8964584008762249	0.18809065379639597	0.5595293596154504	0.9474613186440551	0.1901066869292319	0.579223228979944	0.9984431304761303	0.17400763946954462	0.6246509859122313	1.0042118475399167
2	0.0338983050847457	0.30718072571424626	0.7969209554560002	0.9256996479205315	0.273983917146259	0.9781337970454345	1.2992767520378696	0.2530932760962553	1.2375796206697247	1.636600034785182	0.23570800928971952	0.9981945037824224	1.690519644316711	0.2743637252341067	1.0613785330834746	1.699854734983608	0.24715554734862283	1.3244379902810952	1.6796913219325331	0.08128449436562707	0.8103035577140534	0.913852741086782	0.1084594488364136	0.9758967598959046	1.275901149172879	0.12541007407399157	1.2298177670892145	1.63892305207592	0.10908942544174612	1.0409392233682284	1.6904052854347846	0.056693373280314534	1.1196902493030314	1.674305271844255	0.13463009231287887	1.3180183965392622	1.6866196000231806	0.22650525095827903	0.5075298880770532	0.34765879450296	0.23470434661471756	0.3858776599047153	0.12867294035403523	0.23186490707749907	0.38979908078312253	0.2611582827340311	0.3776466652073779	0.5666364425275697	0.4357101725548731	0.42430169573503995	0.6001046755940854	0.7070554581843241	0.2578645195915808	0.5581926783021607	0.9253506073699775	0.15194396324069703	0.6024937788895948	0.9594945175367453	0.14908914708910526	0.6191229621446344	0.9885268706200525	0.16657044085614442	0.6257225595276797	1.0156312673745018	0.07027393447385477	0.5941630952347517	0.3895842786259446	-4.9089712967006306e-05	0.6178949817989698	0.6758104794397799	0.1146358385643273	0.5538266072418139	0.8963346193409861	0.18625358556101065	0.5612262648763015	0.945967216273544	0.19012779124559206	0.5816343663095417	0.9974364217170172	0.17404652966475834	0.624899433421984	1.0057760112705612
3	0.0508474576271186	0.3072423642269062	0.7969005581876836	0.9253837816347806	0.2762873308900978	0.9832623495988797	1.2994575802071349	0.2529797411403167	1.2372393782367803	1.6356612674009372	0.23580115341011193	0.9986762014971254	1.690579165762775	0.2743042823390869	1.0636206602682508	1.7001597434587696	0.24794097851257024	1.3291189729356683	1.6801935961035466	0.08121355217038194	0.8103715122064542	0.9129961957922504	0.10839558354317771	0.9761844112051404	1.276869333080149	0.12573047579466615	1.2314706682349565	1.6386912354405005	0.1106312659309878	1.0435955721738672	1.6913467440143468	0.05621029698503525	1.11734643834952	1.674168174746871	0.13460136850570514	1.3179790061210455	1.6866233414159573	0.22753159136293377	0.5079188804176928	0.3474168904802736	0.23466998276605627	0.38598953897329275	0.1286391519656177	0.231870384657836	0.3894169897203714	0.26038617689351173	0.3781363847311922	0.5666969409821828	0.43534804989398257	0.424337769643505	0.6001640612182727	0.7070540628038755	0.25788705110418014	0.5583490028250258	0.9269711055315216	0.15202263578465391	0.6023572914594346	0.9595012321584862	0.14896672274206954	0.6193517949870045	0.9895676605874044	0.166513662098863	0.6256667551951816	1.0147951472674575	0.07028819507107571	0.5941735976063797	0.38960708400606625	-8.744185839199967e-05	0.6178028977558859	0.6757830332989501	0.11424245792412138	0.5582489122692439	0.8942568744528951	0.18471835995366306	0.5629048681356036	0.9454278562973478	0.19011157558071032	0.5850933701757677	0.9959594104848435	0.17402147244695912	0.625062717200519	1.005787646244658
